<svg xmlns="http://www.w3.org/2000/svg" xmlns:xlink="http://www.w3.org/1999/xlink" class="invisible">
    <symbol id="icon-add" viewBox="0 0 100 100">
        <path d="M72,50c0,1.1-0.9,2-2,2H52v18c0,1.1-0.9,2-2,2s-2-0.9-2-2V52H30c-1.1,0-2-0.9-2-2c0-1.1,0.9-2,2-2h18V30c0-1.1,0.9-2,2-2s2,0.9,2,2v18h18C71.1,48,72,48.9,72,50z "></path>
        <path fill="#0000FF" d="M1504-1210V474H-280v-1684H1504 M1512-1218H-288V482h1800V-1218L1512-1218z"></path>
    </symbol>
    <symbol id="icon-cancel" viewBox="0 0 100 100">
        <path d="M52.8,50l12.6-12.6c0.8-0.8,0.8-2,0-2.8c-0.8-0.8-2-0.8-2.8,0L50,47.2L37.4,34.6 c-0.8-0.8-2-0.8-2.8,0c-0.8,0.8-0.8,2,0,2.8L47.2,50L34.6,62.6c-0.8,0.8-0.8,2,0,2.8c0.8,0.8,2,0.8,2.8,0L50,52.8l12.6,12.6c0.8,0.8,2,0.8,2.8,0c0.8-0.8,0.8-2,0-2.8L52.8,50z"></path>
    </symbol>
    <symbol id="icon-facebook" viewBox="0 0 32 32">
        <path d="M17.5,25.8v-9h3l0.5-3.5h-3.5v-2.2c0-1,0.3-1.7,1.7-1.7h1.9V6.3c-0.3,0-1.4-0.1-2.7-0.1c-2.7,0-4.5,1.6-4.5,4.6v2.6h-3v3.5h3v9h3.6"/>
    </symbol>
    <symbol id="icon-instagram" viewBox="0 0 32 32">
        <path d="M24.9,20.3c0,2.7-2.2,4.9-4.9,4.9h-8c-2.7,0-4.9-2.2-4.9-4.9v-8.5c0-2.7,2.2-4.9,4.9-4.9h8c2.7,0,4.9,2.2,4.9,4.9V20.3z"/>
        <path d="M20.4,16c0,2.4-1.9,4.4-4.4,4.4s-4.3-2-4.3-4.4s1.9-4.4,4.3-4.4C18.9,11.7,20.4,13.6,20.4,16z"/>
        <circle cx="21.4" cy="10.6" r="1.2"/>
    </symbol>
    <symbol id="icon-twitter" viewBox="0 0 32 32">
        <path d="M13.1,24.3c7.7,0,12-6.4,12-12c0-0.2,0-0.4,0-0.5c0.8-0.6,1.5-1.3,2.1-2.2c-0.7,0.3-1.6,0.6-2.4,0.7C25.6,9.8,26.3,9,26.6,8c-0.8,0.5-1.7,0.8-2.7,1c-0.8-0.8-1.9-1.3-3.1-1.3c-2.3,0-4.2,1.9-4.2,4.2c0,0.3,0,0.6,0.1,1C13.2,12.7,10.1,11,8,8.5c-0.4,0.6-0.6,1.3-0.6,2.1c0,1.5,0.7,2.7,1.9,3.5c-0.7,0-1.3-0.2-1.9-0.5c0,0,0,0,0,0.1c0,2,1.4,3.7,3.4,4.1c-0.4,0.1-0.7,0.2-1.1,0.2c-0.3,0-0.5,0-0.8-0.1c0.5,1.7,2.1,2.9,3.9,2.9c-1.4,1.1-3.2,1.8-5.2,1.8c-0.3,0-0.7,0-1-0.1C8.5,23.6,10.7,24.3,13.1,24.3"/>
    </symbol>
    <symbol id="icon-youtube" viewBox="0 0 32 32">
        <path d="M26.3,11.8c0,0-0.2-1.4-0.8-2.1c-0.8-0.8-1.7-0.8-2.1-0.9c-3-0.2-7.4-0.2-7.4-0.2l0,0c0,0-4.4,0-7.4,0.2c-0.4,0-1.3,0-2.1,0.9c-0.6,0.6-0.8,2.1-0.8,2.1s-0.2,1.7-0.2,3.4v1.6c0,1.7,0.2,3.4,0.2,3.4s0.2,1.4,0.8,2.1c0.8,0.8,1.9,0.8,2.3,0.9c1.7,0.2,7.2,0.2,7.2,0.2s4.4,0,7.4-0.2c0.4,0,1.3,0,2.1-0.9c0.6-0.6,0.8-2.1,0.8-2.1s0.2-1.7,0.2-3.4v-1.6C26.5,13.5,26.3,11.8,26.3,11.8z M13.8,18.7v-5.9l5.7,3L13.8,18.7z"/>
    </symbol>
    <symbol id="icon-layer" viewBox="0 0 32 32">
        <circle cx="11.3" cy="20.7" r="3"/>
        <path d="M8.3,12.7c0,0,11,0.2,11,11"/>
        <path d="M8.3,7.2c0,0,16.5,0.9,16.5,16.6"/>
    </symbol>
    <symbol id="icon-linkedin" viewBox="0 0 32 32">
        <path d="M6.9,13.3h3.9v12.5H6.9V13.3z M8.9,7c1.2,0,2.3,1,2.3,2.3c0,1.2-1,2.3-2.3,2.3s-2.3-1-2.3-2.3S7.6,7,8.9,7"/>
        <path d="M13.3,13.3H17V15l0,0c0.5-1,1.8-2,3.7-2c3.9,0,4.7,2.6,4.7,6v6.9h-3.9v-6.1c0-1.4,0-3.3-2-3.3s-2.3,1.6-2.3,3.2v6.2h-3.9C13.3,25.9,13.3,13.3,13.3,13.3z"/>
    </symbol>
    <symbol id="icon-phone" viewBox="0 0 12 12">
        <path d="M4.95688 3.02392C4.81363 1.37617 3.09463 0.567669 3.02188 0.534669C2.95363 0.502419 2.87713 0.492669 2.80363 0.505419C0.819135 0.834669 0.520634 1.98967 0.508634 2.03767C0.492134 2.10517 0.495134 2.17492 0.516134 2.24017C2.88313 9.58417 7.80239 10.9454 9.41938 11.3932C9.54389 11.4277 9.64664 11.4554 9.72464 11.4809C9.76214 11.4937 9.80114 11.4989 9.84014 11.4989C9.89339 11.4989 9.94664 11.4877 9.99539 11.4652C10.0449 11.4427 11.2134 10.8922 11.4991 9.09667C11.5119 9.01867 11.4991 8.93767 11.4631 8.86717C11.4376 8.81767 10.8264 7.65442 9.13138 7.24342C9.01289 7.21267 8.89139 7.24417 8.79989 7.32217C8.26514 7.77892 7.52639 8.26567 7.20764 8.31592C5.07089 7.27117 3.87763 5.26642 3.83263 4.88617C3.80638 4.67242 4.29613 3.92167 4.85939 3.31117C4.93063 3.23392 4.96663 3.12892 4.95688 3.02392Z"/>
    </symbol>
    <symbol id="icon-envelop" viewBox="0 0 16 13">
        <path d="M2.4 1H13.6C14.37 1 15 1.63 15 2.4V10.8C15 11.57 14.37 12.2 13.6 12.2H2.4C1.63 12.2 1 11.57 1 10.8V2.4C1 1.63 1.63 1 2.4 1Z"  stroke-linecap="round" stroke-linejoin="round"/>
        <path d="M15 2.39844L8 7.29844L1 2.39844" stroke-linecap="round" stroke-linejoin="round"/>
    </symbol>
    <symbol id="icon-test1" viewBox="0 0 32 32" >
        <path d="M3 5v22c0 2.3 6.1 4 13 4s13-1.7 13-4V5"/>
        <path d="M29 5c0 2.3-6.1 4-13 4S3 7.3 3 5s6.1-4 13-4 13 1.7 13 4zm0 11c0 2.3-6.1 4-13 4S3 18.3 3 16"/>
    </symbol>
    <symbol id="icon-test2" viewBox="0 0 50 50">
        <path d="M 25 1 C 21.839277 1 19.19831 1.5686133 17.259766 2.5761719 C 15.321221 3.5837304 14 5.1451015 14 7 L 14 13 L 14 17 L 16 17 L 16 16.617188 C 16.380074 16.913955 16.801337 17.18556 17.259766 17.423828 C 19.19831 18.431387 21.839277 19 25 19 C 28.160723 19 30.80169 18.431387 32.740234 17.423828 C 33.198663 17.18556 33.619926 16.913955 34 16.617188 L 34 17 L 36 17 L 36 13 L 36 7 C 36 5.1451015 34.678779 3.5837304 32.740234 2.5761719 C 30.80169 1.5686133 28.160723 1 25 1 z M 25 3 C 27.915277 3 30.273951 3.5498711 31.816406 4.3515625 C 33.358862 5.1532539 34 6.0918985 34 7 C 34 7.9081015 33.358862 8.8467461 31.816406 9.6484375 C 30.273951 10.450129 27.915277 11 25 11 C 22.084723 11 19.726049 10.450129 18.183594 9.6484375 C 16.641138 8.8467461 16 7.9081015 16 7 C 16 6.0918985 16.641138 5.1532539 18.183594 4.3515625 C 19.726049 3.5498711 22.084723 3 25 3 z M 16 10.617188 C 16.380074 10.913955 16.801337 11.18556 17.259766 11.423828 C 19.19831 12.431387 21.839277 13 25 13 C 28.160723 13 30.80169 12.431387 32.740234 11.423828 C 33.198663 11.18556 33.619926 10.913955 34 10.617188 L 34 13 C 34 13.908102 33.358862 14.846744 31.816406 15.648438 C 30.273951 16.450128 27.915277 17 25 17 C 22.084723 17 19.726049 16.450128 18.183594 15.648438 C 16.641138 14.846744 16 13.908102 16 13 L 16 10.617188 z M 13 19 C 9.8392767 19 7.19831 19.568613 5.2597656 20.576172 C 3.3212213 21.58373 2 23.145102 2 25 L 2 31 L 2 43 C 2 44.854898 3.3212213 46.41627 5.2597656 47.423828 C 7.19831 48.431387 9.8392767 49 13 49 C 16.160723 49 18.80169 48.431387 20.740234 47.423828 C 22.678779 46.41627 24 44.854898 24 43 L 24 31 L 24 25 C 24 23.145102 22.678779 21.58373 20.740234 20.576172 C 18.80169 19.568613 16.160723 19 13 19 z M 37 19 C 33.839277 19 31.19831 19.568613 29.259766 20.576172 C 27.321221 21.58373 26 23.145102 26 25 L 26 31 L 26 43 C 26 44.854898 27.321221 46.41627 29.259766 47.423828 C 31.19831 48.431387 33.839277 49 37 49 C 40.160723 49 42.80169 48.431387 44.740234 47.423828 C 46.678779 46.41627 48 44.854898 48 43 L 48 31 L 48 25 C 48 23.145102 46.678779 21.58373 44.740234 20.576172 C 42.80169 19.568613 40.160723 19 37 19 z M 13 21 C 15.915277 21 18.273951 21.549871 19.816406 22.351562 C 21.358862 23.153254 22 24.091898 22 25 C 22 25.908102 21.358862 26.846746 19.816406 27.648438 C 18.273951 28.450129 15.915277 29 13 29 C 10.084723 29 7.7260492 28.450129 6.1835938 27.648438 C 4.6411381 26.846746 4 25.908102 4 25 C 4 24.091898 4.6411381 23.153254 6.1835938 22.351562 C 7.7260494 21.549871 10.084723 21 13 21 z M 37 21 C 39.915277 21 42.273951 21.549871 43.816406 22.351562 C 45.358862 23.153254 46 24.091898 46 25 C 46 25.908102 45.358862 26.846746 43.816406 27.648438 C 42.273951 28.450129 39.915277 29 37 29 C 34.084723 29 31.726049 28.450129 30.183594 27.648438 C 28.641138 26.846746 28 25.908102 28 25 C 28 24.091898 28.641138 23.153254 30.183594 22.351562 C 31.726049 21.549871 34.084723 21 37 21 z M 4 28.617188 C 4.3800741 28.913955 4.8013374 29.18556 5.2597656 29.423828 C 7.19831 30.431387 9.8392767 31 13 31 C 16.160723 31 18.80169 30.431387 20.740234 29.423828 C 21.198663 29.18556 21.619926 28.913954 22 28.617188 L 22 31 C 22 31.908102 21.358862 32.846746 19.816406 33.648438 C 18.273951 34.450128 15.915277 35 13 35 C 10.084723 35 7.7260492 34.450128 6.1835938 33.648438 C 4.6411381 32.846746 4 31.908102 4 31 L 4 28.617188 z M 28 28.617188 C 28.380074 28.913955 28.801337 29.18556 29.259766 29.423828 C 31.19831 30.431387 33.839277 31 37 31 C 40.160723 31 42.80169 30.431387 44.740234 29.423828 C 45.198663 29.18556 45.619926 28.913955 46 28.617188 L 46 31 C 46 31.908102 45.358862 32.846746 43.816406 33.648438 C 42.273951 34.450128 39.915277 35 37 35 C 34.084723 35 31.726049 34.450128 30.183594 33.648438 C 28.641138 32.846746 28 31.908102 28 31 L 28 28.617188 z M 4 34.617188 C 4.3800741 34.913955 4.8013374 35.18556 5.2597656 35.423828 C 7.19831 36.431387 9.8392767 37 13 37 C 16.160723 37 18.80169 36.431387 20.740234 35.423828 C 21.198663 35.18556 21.619926 34.913955 22 34.617188 L 22 37 C 22 37.908102 21.358862 38.846746 19.816406 39.648438 C 18.273951 40.450128 15.915277 41 13 41 C 10.084723 41 7.7260492 40.450128 6.1835938 39.648438 C 4.6411381 38.846746 4 37.908102 4 37 L 4 34.617188 z M 28 34.617188 C 28.380074 34.913955 28.801337 35.18556 29.259766 35.423828 C 31.19831 36.431387 33.839277 37 37 37 C 40.160723 37 42.80169 36.431387 44.740234 35.423828 C 45.198663 35.18556 45.619926 34.913955 46 34.617188 L 46 37 C 46 37.908102 45.358862 38.846746 43.816406 39.648438 C 42.273951 40.450128 39.915277 41 37 41 C 34.084723 41 31.726049 40.450128 30.183594 39.648438 C 28.641138 38.846746 28 37.908102 28 37 L 28 34.617188 z M 4 40.617188 C 4.3800741 40.913955 4.8013374 41.18556 5.2597656 41.423828 C 7.19831 42.431387 9.8392767 43 13 43 C 16.160723 43 18.80169 42.431387 20.740234 41.423828 C 21.198663 41.18556 21.619926 40.913955 22 40.617188 L 22 43 C 22 43.908102 21.358862 44.846746 19.816406 45.648438 C 18.273951 46.450128 15.915277 47 13 47 C 10.084723 47 7.7260492 46.450128 6.1835938 45.648438 C 4.6411381 44.846746 4 43.908102 4 43 L 4 40.617188 z M 28 40.617188 C 28.380074 40.913955 28.801337 41.18556 29.259766 41.423828 C 31.19831 42.431387 33.839277 43 37 43 C 40.160723 43 42.80169 42.431387 44.740234 41.423828 C 45.198663 41.18556 45.619926 40.913955 46 40.617188 L 46 43 C 46 43.908102 45.358862 44.846746 43.816406 45.648438 C 42.273951 46.450128 39.915277 47 37 47 C 34.084723 47 31.726049 46.450128 30.183594 45.648438 C 28.641138 44.846746 28 43.908102 28 43 L 28 40.617188 z"/>
    </symbol>
    <symbol id="icon-test3" viewBox="0 0 180 240">
        <path d="M69,167.978603 C60.1163399,163.618396 49.8418301,166.704834 46.0509804,174.875458 C45.5803922,175.88794 45.2300654,176.938527 45,178" fill="#FDFCEF"/>
        <path d="M44.3282979,179 C44.2328068,179 44.1320107,178.989641 44.0312146,178.968922 C43.3203367,178.808353 42.8694067,178.114278 43.0338635,177.415024 C43.2938114,176.301397 43.6863858,175.208489 44.1956714,174.172557 C48.3495327,165.771149 59.5803429,162.55458 69.2408555,166.998728 C69.9039879,167.309508 70.185156,168.076098 69.8721575,168.723555 C69.559159,169.376192 68.7687052,169.640355 68.1055729,169.345114 C59.7660199,165.491447 50.1108123,168.164152 46.582948,175.291364 C46.1585433,176.156367 45.8296296,177.062807 45.6174273,177.989966 C45.4848008,178.595987 44.9383797,179 44.3282979,179 Z" fill="#472B29"/>
        <path d="M172,158.439546 C172,144.942045 134.393863,134 88,134 C41.6061375,134 4,144.942045 4,158.439546 L4,204.560454 C4,218.057955 41.6061375,229 88,229 C134.393863,229 172,218.057955 172,204.560454 L172,158.439546 L172,158.439546 Z" fill="#7B868C"/>
        <path d="M88,232 C44.26712,232 0,222.367139 0,203.956372 L0,158.043628 C0,139.632861 44.2724624,130 88,130 C131.727538,130 176,139.632861 176,158.043628 L176,203.956372 C176.005342,222.361828 131.73288,232 88,232 Z M88,137.434402 C38.1126761,137.434402 7.47935891,149.440962 7.47935891,158.043628 L7.47935891,203.956372 C7.47935891,212.559038 38.1126761,224.565598 88,224.565598 C137.887324,224.565598 168.520641,212.559038 168.520641,203.956372 L168.520641,158.043628 C168.520641,149.440962 137.887324,137.434402 88,137.434402 Z" fill="#102D40"/>
        <path d="M88,134 C41.608081,134 4,144.969024 4,158.5 C4,172.030976 41.608081,183 88,183 C134.391919,183 172,172.030976 172,158.5 C172,144.969024 134.391919,134 88,134 Z" fill="#CED5D9"/>
        <path d="M88,185 C45.7270081,185 2,175.086562 2,158.5 C2,141.913438 45.7270081,132 88,132 C130.272992,132 174,141.913438 174,158.5 C174,175.086562 130.272992,185 88,185 Z M88,136.010291 C39.6712702,136.010291 5.99455007,147.864709 5.99455007,158.5 C5.99455007,169.135291 39.6712702,180.989709 88,180.989709 C136.32873,180.989709 170.00545,169.135291 170.00545,158.5 C170.00545,147.864709 136.32873,136.010291 88,136.010291 Z" fill="#102D40"/>
        <path d="M172,91.4395462 C172,77.9420453 134.393863,67 88,67 C41.6061375,67 4,77.9420453 4,91.4395462 L4,137.560454 C4,151.057955 41.6061375,162 88,162 C134.393863,162 172,151.057955 172,137.560454 L172,91.4395462 L172,91.4395462 Z" fill="#7B868C"/>
        <path d="M88,165 C44.26712,165 0,155.367139 0,136.956372 L0,91.0436277 C0,72.6328613 44.2724624,63 88,63 C131.727538,63 176,72.6328613 176,91.0436277 L176,136.956372 C176.005342,155.367139 131.73288,165 88,165 Z M88,70.4344023 C38.1126761,70.4344023 7.47935891,82.4409621 7.47935891,91.0436277 L7.47935891,136.956372 C7.47935891,145.559038 38.1126761,157.565598 88,157.565598 C137.887324,157.565598 168.520641,145.559038 168.520641,136.956372 L168.520641,91.0436277 C168.520641,82.4409621 137.887324,70.4344023 88,70.4344023 Z" fill="#102D40"/>
        <path d="M136.774537,111.448701 C123.023079,114.315324 106.187928,116 88,116 C41.6061375,116 4,105.030888 4,91.5 C4,77.9691115 41.6061375,67 88,67 C134.393863,67 172,77.9691115 172,91.5 C172,96.5754202 166.711387,101.287164 157.652042,105.196682" fill="#CED5D9"/>
        <path d="M88,118 C45.7270081,118 2,108.086562 2,91.5 C2,74.9134383 45.7270081,65 88,65 C130.272992,65 174,74.9134383 174,91.5 C174,97.2694713 168.620673,102.643261 158.442559,107.038539 C157.441258,107.466303 156.258872,107.006457 155.816808,105.990517 C155.380071,104.974576 155.848764,103.792877 156.866043,103.354419 C165.339815,99.6970339 170.00545,95.4835553 170.00545,91.5 C170.00545,80.8647094 136.32873,69.0102906 88,69.0102906 C39.6712702,69.0102906 5.99455007,80.8647094 5.99455007,91.5 C5.99455007,102.135291 39.6712702,113.989709 88,113.989709 C105.474825,113.989709 122.204001,112.433717 136.371338,109.482143 C137.457856,109.284302 138.512417,109.958031 138.730786,111.038136 C138.954481,112.123588 138.262092,113.182304 137.1809,113.406881 C122.752586,116.411925 105.746454,118 88,118 Z" fill="#102D40"/>
        <path d="M145.129983,110.610773 C144.21856,110.610773 143.323317,110.085773 143.08063,109.255773 C142.789406,108.255773 143.301744,107.260773 144.380351,106.985773 L146.418919,106.465773 C147.48674,106.170773 148.613884,106.755773 148.921287,107.750773 C149.22869,108.745773 148.608491,109.785773 147.535277,110.070773 L145.685466,110.545773 C145.507496,110.585773 145.313346,110.610773 145.129983,110.610773 Z" fill="#102D40"/>
        <path d="M172,28.4395462 C172,14.9420453 134.393863,4 88,4 C41.6061375,4 4,14.9420453 4,28.4395462 L4,74.5604538 C4,88.0579547 41.6061375,99 88,99 C134.393863,99 172,88.0579547 172,74.5604538 L172,28.4395462 L172,28.4395462 Z" fill="#7B868C"/>
        <path d="M88,102 C44.26712,102 0,92.3666372 0,73.9549123 L0,28.0397772 C0,9.62805227 44.2724624,-2.27373675e-13 88,-2.27373675e-13 C131.727538,-2.27373675e-13 176,9.62805227 176,28.0397772 L176,73.9549123 C176.005342,92.3666372 131.73288,102 88,102 Z M88,7.44009996 C38.1126761,7.44009996 7.47935891,19.4419743 7.47935891,28.0450877 L7.47935891,73.9602228 C7.47935891,82.5633363 38.1126761,94.5705212 88,94.5705212 C137.887324,94.5705212 168.520641,82.5633363 168.520641,73.9602228 L168.520641,28.0450877 C168.520641,19.4419743 137.887324,7.44009996 88,7.44009996 Z" fill="#102D40"/>
        <path d="M14.8435202,40.5494434 C7.94116155,36.9929055 4,32.8801572 4,28.5 C4,14.9691115 41.6061375,4 88,4 C134.393863,4 172,14.9691115 172,28.5 C172,42.0308885 134.393863,53 88,53 C65.4022318,53 44.8922141,50.3954377 29.7933046,46.1650295" fill="#CED5D9"/>
        <path d="M88,55 C66.0139964,55 45.1517929,52.5454545 29.2588097,48.0962567 C28.1935963,47.7967914 27.5757726,46.6898396 27.8687063,45.6256684 C28.166966,44.5561497 29.2694618,43.9304813 30.3293491,44.2299465 C45.881464,48.5828877 66.3655168,50.9893048 88,50.9893048 C136.32873,50.9893048 170.00545,39.1336898 170.00545,28.4973262 C170.00545,17.8609626 136.32873,6.01069519 88,6.01069519 C39.6712702,6.01069519 5.99455007,17.8609626 5.99455007,28.4973262 C5.99455007,32.828877 11.3046386,36.4705882 15.7572304,38.7647059 C16.7372267,39.2727273 17.1260296,40.4812834 16.6200533,41.4652406 C16.119403,42.459893 14.9103858,42.828877 13.9303895,42.3368984 C6.01585434,38.2513369 2,33.5935829 2,28.4973262 C2,11.9090909 45.7270081,2 88,2 C130.272992,2 174,11.9144385 174,28.4973262 C174,45.0855615 130.272992,55 88,55 Z" fill="#102D40"/>
        <path d="M24.0658925,45.5992848 C23.8658925,45.5992848 23.6658925,45.5692848 23.4708925,45.4992848 L22.4858925,45.1642848 C21.5108925,44.8242848 20.8108925,43.6892848 21.1458925,42.7142848 C21.4858925,41.7392848 22.3658925,41.1642848 23.3458925,41.4942848 L24.6608925,41.9492848 C25.6408925,42.2742848 26.1708925,43.3392848 25.8408925,44.3242848 C25.5808925,45.1042848 24.8508925,45.5992848 24.0658925,45.5992848 Z" fill="#102D40"/>
    </symbol>
    <symbol id="icon-objectives1" viewBox="0 0 32 32"><path d="M13.369 9.512L7.505 3.648M3.648 7.505l5.864 5.864m12.976 0l5.864-5.864m-3.857-3.857l-5.864 5.864m0 12.976l5.864 5.864m3.857-3.857l-5.864-5.864m-12.976 0l-5.864 5.864m3.857 3.857l5.864-5.864"/><circle cx="16" cy="16" r="15"/><circle cx="16" cy="16" r="7" /></symbol>
    <symbol id="icon-objectives2" viewBox="0 0 50 50"><path d="M 23 1 C 15.773438 1 10.445313 3.492188 7 7.398438 C 3.554688 11.308594 2 16.558594 2 22 C 2 26.40625 3.363281 30.507813 5.675781 33.867188 C 7.769531 36.914063 9 40.519531 9 44.199219 L 9 49 L 11 49 L 11 44.199219 C 11 40.078125 9.628906 36.085938 7.324219 32.734375 C 5.234375 29.695313 4 25.992188 4 22 C 4 16.941406 5.445313 12.191406 8.5 8.726563 C 11.554688 5.257813 16.226563 3 23 3 C 29.800781 3 34.207031 4.980469 37.117188 8.007813 C 40.027344 11.03125 41.472656 15.203125 42.007813 19.71875 L 42.03125 19.921875 L 46.828125 28.1875 C 47.074219 28.632813 46.949219 29.078125 46.515625 29.324219 L 42 31.582031 L 42 37.597656 C 42 41.339844 38.921875 44.25 35.191406 43.90625 L 35.175781 43.902344 L 31 43.632813 L 31 49 L 33 49 L 33 45.765625 L 35.007813 45.894531 C 39.878906 46.351563 44 42.457031 44 37.597656 L 44 32.816406 L 47.484375 31.074219 C 48.847656 30.316406 49.324219 28.566406 48.574219 27.214844 L 48.570313 27.207031 L 43.921875 19.199219 C 43.328125 14.515625 41.804688 9.996094 38.558594 6.617188 C 35.242188 3.171875 30.199219 1 23 1 Z M 27 8 L 27 10.101563 C 26.363281 10.230469 25.773438 10.488281 25.25 10.835938 L 23.757813 9.34375 L 22.34375 10.757813 L 23.835938 12.25 C 23.488281 12.773438 23.230469 13.363281 23.101563 14 L 21 14 L 21 16 L 23.101563 16 C 23.230469 16.636719 23.488281 17.226563 23.835938 17.75 L 22.34375 19.242188 L 23.757813 20.65625 L 25.25 19.164063 C 25.773438 19.511719 26.363281 19.769531 27 19.898438 L 27 22 L 29 22 L 29 19.898438 C 29.636719 19.769531 30.226563 19.511719 30.75 19.164063 L 32.242188 20.65625 L 33.65625 19.242188 L 32.164063 17.75 C 32.511719 17.226563 32.769531 16.636719 32.898438 16 L 35 16 L 35 14 L 32.898438 14 C 32.769531 13.363281 32.511719 12.773438 32.164063 12.25 L 33.65625 10.757813 L 32.242188 9.34375 L 30.75 10.835938 C 30.226563 10.488281 29.636719 10.230469 29 10.101563 L 29 8 Z M 28 12 C 29.667969 12 31 13.332031 31 15 C 31 16.667969 29.667969 18 28 18 C 26.332031 18 25 16.667969 25 15 C 25 13.332031 26.332031 12 28 12 Z M 15 16 L 15 18.101563 C 14.363281 18.230469 13.78125 18.492188 13.253906 18.84375 L 11.757813 17.34375 L 10.34375 18.757813 L 11.84375 20.257813 C 11.496094 20.78125 11.238281 21.367188 11.109375 22 L 9 22 L 9 24 L 11.101563 24 C 11.230469 24.636719 11.488281 25.226563 11.835938 25.75 L 10.34375 27.242188 L 11.757813 28.65625 L 13.25 27.164063 C 13.773438 27.511719 14.363281 27.769531 15 27.898438 L 15 30 L 17 30 L 17 27.898438 C 17.636719 27.769531 18.226563 27.511719 18.75 27.164063 L 20.242188 28.65625 L 21.65625 27.242188 L 20.164063 25.75 C 20.511719 25.226563 20.769531 24.636719 20.898438 24 L 23 24 L 23 22 L 20.890625 22 C 20.761719 21.367188 20.503906 20.78125 20.15625 20.257813 L 21.65625 18.757813 L 20.242188 17.34375 L 18.746094 18.84375 C 18.21875 18.492188 17.636719 18.230469 17 18.101563 L 17 16 Z M 16 20 C 17.667969 20 19 21.332031 19 23 C 19 24.667969 17.667969 26 16 26 C 14.332031 26 13 24.667969 13 23 C 13 21.332031 14.332031 20 16 20 Z"/></symbol>
    <symbol id="icon-objectives4" viewBox="0 0 50 50"><path d="M 12 2 C 9.25 2 7 4.25 7 7 C 7 9.75 9.25 12 12 12 C 14.75 12 17 9.75 17 7 C 17 4.25 14.75 2 12 2 Z M 29 2 L 29 4 L 19 4 L 19 6 L 46 6 L 46 32 L 20 32 L 20 34 L 28.5 34 L 23 45 L 25 45 L 30 35 L 35 45 L 37 45 L 31.5 34 L 47 34 C 47.550781 34 48 33.550781 48 33 L 48 5 C 48 4.449219 47.550781 4 47 4 L 31 4 L 31 2 Z M 12 4 C 13.667969 4 15 5.332031 15 7 C 15 8.667969 13.667969 10 12 10 C 10.332031 10 9 8.667969 9 7 C 9 5.332031 10.332031 4 12 4 Z M 7.5 13 C 4.472656 13 2 15.472656 2 18.5 L 2 30.8125 C 1.996094 30.855469 1.996094 30.894531 2 30.9375 L 2 31 C 1.996094 31.09375 2.007813 31.191406 2.03125 31.28125 C 2.179688 32.792969 3.453125 34 5 34 C 5.351563 34 5.683594 33.925781 6 33.8125 L 6 44.5 C 6 46.421875 7.578125 48 9.5 48 C 10.476563 48 11.363281 47.589844 12 46.9375 C 12.636719 47.589844 13.523438 48 14.5 48 C 16.421875 48 18 46.421875 18 44.5 L 18 19 L 29 19 C 30.644531 19 32 17.644531 32 16 C 32 14.375 30.679688 13.035156 29.0625 13 C 29.042969 13 29.019531 13 29 13 L 15 13 C 14.613281 12.996094 14.261719 13.214844 14.09375 13.5625 L 12 17.75 L 9.90625 13.5625 C 9.738281 13.214844 9.386719 12.996094 9 13 Z M 7.5 15 L 8.375 15 L 11.09375 20.4375 C 11.257813 20.789063 11.613281 21.015625 12 21.015625 C 12.386719 21.015625 12.742188 20.789063 12.90625 20.4375 L 15.625 15 L 29 15 C 29.03125 15 29.0625 15 29.09375 15 C 29.613281 15.046875 30 15.46875 30 16 C 30 16.566406 29.566406 17 29 17 L 17 17 C 16.449219 17 16 17.449219 16 18 L 16 44.5 C 16 45.339844 15.339844 46 14.5 46 C 13.710938 46 13.074219 45.421875 13 44.65625 L 13 44.40625 C 13 44.375 13 44.34375 13 44.3125 L 13 34 C 13.011719 33.710938 12.894531 33.433594 12.6875 33.238281 C 12.476563 33.039063 12.191406 32.941406 11.90625 32.96875 C 11.863281 32.976563 11.820313 32.988281 11.78125 33 C 11.316406 33.105469 10.988281 33.523438 11 34 L 11 44.3125 C 10.996094 44.355469 10.996094 44.394531 11 44.4375 L 11 44.65625 C 10.925781 45.421875 10.289063 46 9.5 46 C 8.660156 46 8 45.339844 8 44.5 L 8 21 C 8.007813 20.691406 7.871094 20.398438 7.632813 20.203125 C 7.398438 20.007813 7.082031 19.933594 6.78125 20 C 6.316406 20.105469 5.988281 20.523438 6 21 L 6 30.84375 C 6 30.875 6 30.90625 6 30.9375 L 6 31 C 6 31.566406 5.566406 32 5 32 C 4.457031 32 4.03125 31.597656 4 31.0625 C 4 31.042969 4 31.019531 4 31 C 4.007813 30.9375 4.007813 30.875 4 30.8125 L 4 18.5 C 4 16.554688 5.554688 15 7.5 15 Z"/></symbol>
    <symbol id="icon-objectives3" viewBox="0 0 32 32"><path d="M1 5l10-3 10 4 10-3v24l-10 3-10-4-10 3zm18 8l6 6m0-6l-6 6m-6-3h2m-8 0h2"/></symbol>
    <symbol id="icon-objectives8" viewBox="0 0 50 50">
        <path d="M 25 2 C 23.75 2 22.685226 2.5047556 22.001953 3.2734375 C 21.318681 4.0421194 21 5.0277779 21 6 C 21 6.9722221 21.318681 7.9578806 22.001953 8.7265625 C 22.485551 9.2706099 23.203964 9.6027195 24 9.796875 L 24 21 A 1.0001 1.0001 0 0 0 24.017578 21.199219 C 23.228076 21.388213 22.517973 21.71703 22.03125 22.248047 A 1.0001 1.0001 0 0 0 21.789062 22.072266 L 10.867188 16.005859 C 10.946117 15.674361 11 15.337927 11 15 C 11 14.027778 10.681319 13.042119 9.9980469 12.273438 C 9.3147744 11.504755 8.2499997 11 7 11 C 5.7500003 11 4.6852256 11.504756 4.0019531 12.273438 C 3.3186806 13.042118 3 14.027778 3 15 C 3 15.972222 3.3186806 16.957881 4.0019531 17.726562 C 4.6852256 18.495244 5.7500003 19 7 19 C 8.2195743 19 9.2567585 18.514641 9.9414062 17.777344 L 20.818359 23.820312 A 1.0001 1.0001 0 0 0 21.146484 23.941406 C 21.058791 24.28966 21 24.64404 21 25 C 21 25.37054 21.061126 25.739875 21.15625 26.101562 A 1.0001 1.0001 0 0 0 20.722656 26.232422 L 9.9414062 32.220703 C 9.2567447 31.483942 8.219051 31 7 31 C 5.7500003 31 4.6852256 31.504756 4.0019531 32.273438 C 3.3186806 33.042119 3 34.027778 3 35 C 3 35.972222 3.3186806 36.957881 4.0019531 37.726562 C 4.6852256 38.495244 5.7500003 39 7 39 C 8.2499997 39 9.3147744 38.495244 9.9980469 37.726562 C 10.681319 36.957881 11 35.972222 11 35 C 11 34.66286 10.947698 34.326857 10.869141 33.996094 L 21.695312 27.980469 A 1.0001 1.0001 0 0 0 22.001953 27.726562 C 22.489074 28.274573 23.213961 28.608408 24.017578 28.800781 A 1.0001 1.0001 0 0 0 24 29 L 24 40.203125 C 23.203964 40.397281 22.485551 40.72939 22.001953 41.273438 C 21.318681 42.042119 21 43.027778 21 44 C 21 44.972222 21.318681 45.957881 22.001953 46.726562 C 22.685226 47.495244 23.75 48 25 48 C 26.25 48 27.314774 47.495245 27.998047 46.726562 C 28.681319 45.957881 29 44.972222 29 44 C 29 43.027778 28.681319 42.042118 27.998047 41.273438 C 27.514449 40.72939 26.796036 40.397281 26 40.203125 L 26 29 A 1.0001 1.0001 0 0 0 25.982422 28.800781 C 26.78202 28.60937 27.503187 28.277516 27.990234 27.734375 A 1.0001 1.0001 0 0 0 28.273438 27.962891 L 39.132812 33.994141 C 39.053883 34.325639 39 34.662073 39 35 C 39 35.972222 39.318681 36.957881 40.001953 37.726562 C 40.685226 38.495244 41.75 39 43 39 C 44.25 39 45.314774 38.495244 45.998047 37.726562 C 46.681319 36.957881 47 35.972222 47 35 C 47 34.027778 46.681319 33.042119 45.998047 32.273438 C 45.314774 31.504756 44.25 31 43 31 C 41.781529 31 40.745224 31.484537 40.060547 32.220703 L 29.244141 26.214844 A 1.0001 1.0001 0 0 0 28.845703 26.087891 C 28.938478 25.730378 29 25.365997 29 25 C 29 24.652036 28.943124 24.305686 28.859375 23.964844 A 1.0001 1.0001 0 0 0 29.111328 23.859375 L 40.058594 17.779297 C 40.743256 18.516058 41.780949 19 43 19 C 44.25 19 45.314774 18.495244 45.998047 17.726562 C 46.681319 16.957881 47 15.972222 47 15 C 47 14.027778 46.681319 13.042119 45.998047 12.273438 C 45.314774 11.504755 44.25 11 43 11 C 41.75 11 40.685226 11.504756 40.001953 12.273438 C 39.318681 13.042118 39 14.027778 39 15 C 39 15.337927 39.053883 15.674361 39.132812 16.005859 L 28.140625 22.111328 A 1.0001 1.0001 0 0 0 27.957031 22.236328 C 27.470597 21.712476 26.765896 21.38677 25.982422 21.199219 A 1.0001 1.0001 0 0 0 26 21 L 26 9.796875 C 26.796036 9.6027195 27.514449 9.2706099 27.998047 8.7265625 C 28.681319 7.9578806 29 6.9722221 29 6 C 29 5.0277779 28.681319 4.0421194 27.998047 3.2734375 C 27.314774 2.5047556 26.25 2 25 2 z M 25 4 C 25.749999 4 26.185226 4.2452444 26.501953 4.6015625 C 26.81868 4.9578806 27 5.4722221 27 6 C 27 6.5277779 26.81868 7.0421194 26.501953 7.3984375 C 26.191403 7.7478065 25.752728 7.9789409 25.029297 7.9882812 A 1.0001 1.0001 0 0 0 24.96875 7.9863281 C 24.247433 7.9762535 23.8081 7.7472473 23.498047 7.3984375 C 23.18132 7.0421194 23 6.5277779 23 6 C 23 5.4722221 23.18132 4.9578806 23.498047 4.6015625 C 23.814774 4.2452444 24.250001 4 25 4 z M 7 13 C 7.7499995 13 8.1852261 13.245244 8.5019531 13.601562 C 8.8186802 13.957882 9 14.472222 9 15 C 9 15.527778 8.8186802 16.042119 8.5019531 16.398438 C 8.1852261 16.754756 7.7499995 17 7 17 C 6.2500005 17 5.8147739 16.754756 5.4980469 16.398438 C 5.1813198 16.042119 5 15.527778 5 15 C 5 14.472222 5.1813198 13.957881 5.4980469 13.601562 C 5.8147739 13.245245 6.2500005 13 7 13 z M 43 13 C 43.749999 13 44.185226 13.245244 44.501953 13.601562 C 44.81868 13.957882 45 14.472222 45 15 C 45 15.527778 44.81868 16.042119 44.501953 16.398438 C 44.185226 16.754756 43.749999 17 43 17 C 42.250001 17 41.814774 16.754756 41.498047 16.398438 C 41.18132 16.042119 41 15.527778 41 15 C 41 14.472222 41.18132 13.957881 41.498047 13.601562 C 41.814774 13.245245 42.250001 13 43 13 z M 25 23 C 25.749999 23 26.185226 23.245244 26.501953 23.601562 C 26.81868 23.957881 27 24.472222 27 25 C 27 25.527778 26.81868 26.042118 26.501953 26.398438 C 26.185226 26.754756 25.749999 27 25 27 C 24.250001 27 23.814774 26.754756 23.498047 26.398438 C 23.18132 26.042119 23 25.527778 23 25 C 23 24.472222 23.18132 23.957882 23.498047 23.601562 C 23.814774 23.245244 24.250001 23 25 23 z M 7 33 C 7.7499995 33 8.1852261 33.245244 8.5019531 33.601562 C 8.8186802 33.957881 9 34.472222 9 35 C 9 35.527778 8.8186802 36.042119 8.5019531 36.398438 C 8.1852261 36.754756 7.7499995 37 7 37 C 6.2500005 37 5.8147739 36.754756 5.4980469 36.398438 C 5.1813198 36.042119 5 35.527778 5 35 C 5 34.472222 5.1813198 33.957881 5.4980469 33.601562 C 5.8147739 33.245244 6.2500005 33 7 33 z M 43 33 C 43.749999 33 44.185226 33.245244 44.501953 33.601562 C 44.81868 33.957881 45 34.472222 45 35 C 45 35.527778 44.81868 36.042119 44.501953 36.398438 C 44.185226 36.754756 43.749999 37 43 37 C 42.250001 37 41.814774 36.754756 41.498047 36.398438 C 41.18132 36.042119 41 35.527778 41 35 C 41 34.472222 41.18132 33.957881 41.498047 33.601562 C 41.814774 33.245244 42.250001 33 43 33 z M 24.970703 42.011719 A 1.0001 1.0001 0 0 0 25.03125 42.013672 C 25.75257 42.023742 26.1919 42.252753 26.501953 42.601562 C 26.818677 42.957834 27 43.472222 27 44 C 27 44.527778 26.81868 45.042119 26.501953 45.398438 C 26.185226 45.754756 25.749999 46 25 46 C 24.250001 46 23.814774 45.754755 23.498047 45.398438 C 23.18132 45.042119 23 44.527778 23 44 C 23 43.472222 23.18132 42.957881 23.498047 42.601562 C 23.808597 42.252193 24.247272 42.021059 24.970703 42.011719 z"/>
    </symbol>
    <symbol id="icon-objectives7" viewBox="0 0 50 50"><title>edb-epas</title><path d="M25,2 C22.806013,2 21.005415,3.7974359 21,5.9902344 L9.9375,12.3125 C9.2044591,11.512473 8.1619822,11 7,11 C4.8027056,11 3,12.802706 3,15 C3,16.850301 4.2842135,18.405591 6,18.855469 L6,31.144531 C4.2842135,31.594409 3,33.149699 3,35 C3,37.197294 4.8027056,39 7,39 C8.1619822,39 9.2044591,38.487527 9.9375,37.6875 L21,44.009766 C21.005415,46.202564 22.806013,48 25,48 C27.193987,48 28.994585,46.202564 29,44.009766 L40.0625,37.6875 C40.795541,38.487527 41.838018,39 43,39 C45.197294,39 47,37.197294 47,35 C47,33.149699 45.715786,31.594409 44,31.144531 L44,18.855469 C45.715786,18.405591 47,16.850301 47,15 C47,12.802706 45.197294,11 43,11 C41.838018,11 40.795541,11.512473 40.0625,12.3125 L29,5.9902344 C28.994585,3.7974359 27.193987,2 25,2 Z M25,4 C26.116414,4 27,4.8835859 27,6 C27,7.1164141 26.116414,8 25,8 C23.883586,8 23,7.1164141 23,6 C23,4.8835859 23.883586,4 25,4 Z M21.548828,7.9804688 C22.242368,9.1788112 23.525281,10 25,10 C26.474719,10 27.757632,9.1788112 28.451172,7.9804688 L39.119141,14.078125 C39.047772,14.375567 39,14.68172 39,15 C39,16.850301 40.284214,18.405591 42,18.855469 L42,31.144531 C40.284214,31.594409 39,33.149699 39,35 C39,35.31828 39.047772,35.624433 39.119141,35.921875 L28.451172,42.019531 C27.757632,40.821189 26.474719,40 25,40 C23.525281,40 22.242368,40.821189 21.548828,42.019531 L10.880859,35.921875 C10.952228,35.624433 11,35.31828 11,35 C11,33.149699 9.7157865,31.594409 8,31.144531 L8,18.855469 C9.7157865,18.405591 11,16.850301 11,15 C11,14.68172 10.952228,14.375567 10.880859,14.078125 L21.548828,7.9804688 Z M7,13 C8.1164141,13 9,13.883586 9,15 C9,16.085528 8.162361,16.943181 7.0898438,16.990234 C7.05478079,16.9870766 7.01957551,16.9857728 6.984375,16.986328 C6.95894394,16.986661 6.93353483,16.9879639 6.9082031,16.990234 C5.8366323,16.94221 5,16.084864 5,15 C5,13.883586 5.8835859,13 7,13 Z M43,13 C44.116414,13 45,13.883586 45,15 C45,16.085528 44.162361,16.943181 43.089844,16.990234 C43.0547809,16.9870766 43.0195756,16.9857728 42.984375,16.986328 C42.9589439,16.986661 42.9335348,16.9879639 42.908203,16.990234 C41.836632,16.94221 41,16.084864 41,15 C41,13.883586 41.883586,13 43,13 Z M6.9101562,33.009766 C6.97057775,33.0152757 7.03137535,33.0152757 7.0917969,33.009766 C8.1633677,33.05779 9,33.915136 9,35 C9,36.116414 8.1164141,37 7,37 C5.8835859,37 5,36.116414 5,35 C5,33.914472 5.837639,33.056819 6.9101562,33.009766 Z M42.910156,33.009766 C42.9705777,33.0152757 43.0313753,33.0152757 43.091797,33.009766 C44.163368,33.05779 45,33.915136 45,35 C45,36.116414 44.116414,37 43,37 C41.883586,37 41,36.116414 41,35 C41,33.914472 41.837639,33.056819 42.910156,33.009766 Z M25,42 C26.116414,42 27,42.883586 27,44 C27,45.116414 26.116414,46 25,46 C23.883586,46 23,45.116414 23,44 C23,42.883586 23.883586,42 25,42 Z" fill-rule="nonzero"/><path d="M25,14 C22.446754,14 20.307206,14.456516 18.716797,15.283203 C17.126388,16.10989 16,17.421546 16,19 L16,23 L16,27 L16,31 C16,32.578454 17.126388,33.89011 18.716797,34.716797 C20.307206,35.543484 22.446754,36 25,36 C27.553246,36 29.692794,35.543484 31.283203,34.716797 C32.873612,33.89011 34,32.578454 34,31 L34,27 L34,23 L34,19 C34,17.421546 32.873612,16.10989 31.283203,15.283203 C29.692794,14.456516 27.553246,14 25,14 Z M25,16 C27.307754,16 29.166987,16.437781 30.361328,17.058594 C31.555669,17.679407 32,18.368454 32,19 C32,19.631546 31.555669,20.320593 30.361328,20.941406 C29.166987,21.562219 27.307754,22 25,22 C22.692246,22 20.833013,21.562219 19.638672,20.941406 C18.444331,20.320593 18,19.631546 18,19 C18,18.368454 18.444331,17.679407 19.638672,17.058594 C20.833013,16.437781 22.692246,16 25,16 Z M18,22.283203 C18.226833,22.438365 18.463816,22.585299 18.716797,22.716797 C20.307206,23.543484 22.446754,24 25,24 C27.553246,24 29.692794,23.543484 31.283203,22.716797 C31.536184,22.585299 31.773167,22.438365 32,22.283203 L32,23 C32,23.631546 31.555669,24.320593 30.361328,24.941406 C29.166987,25.562219 27.307754,26 25,26 C22.692246,26 20.833013,25.562219 19.638672,24.941406 C18.444331,24.320593 18,23.631546 18,23 L18,22.283203 Z M18,26.283203 C18.226833,26.438365 18.463816,26.585299 18.716797,26.716797 C20.307206,27.543484 22.446754,28 25,28 C27.553246,28 29.692794,27.543484 31.283203,26.716797 C31.536184,26.585299 31.773167,26.438365 32,26.283203 L32,27 C32,27.631546 31.555669,28.320593 30.361328,28.941406 C29.166987,29.562219 27.307754,30 25,30 C22.692246,30 20.833013,29.562219 19.638672,28.941406 C18.444331,28.320593 18,27.631546 18,27 L18,26.283203 Z M18,30.283203 C18.226833,30.438365 18.463816,30.585299 18.716797,30.716797 C20.307206,31.543484 22.446754,32 25,32 C27.553246,32 29.692794,31.543484 31.283203,30.716797 C31.536184,30.585299 31.773167,30.438365 32,30.283203 L32,31 C32,31.631546 31.555669,32.320593 30.361328,32.941406 C29.166987,33.562219 27.307754,34 25,34 C22.692246,34 20.833013,33.562219 19.638672,32.941406 C18.444331,32.320593 18,31.631546 18,31 L18,30.283203 Z" fill-rule="nonzero"/></symbol>
    <symbol id="icon-objectives6" viewBox="0 0 50 50"><title>earth</title><path d="M 25 1 A 1 1 0 0 0 24 2 A 1 1 0 0 0 25 3 A 1 1 0 0 0 26 2 A 1 1 0 0 0 25 1 z M 19.046875 1.7832031 A 1 1 0 0 0 18.046875 2.7832031 A 1 1 0 0 0 19.046875 3.7832031 A 1 1 0 0 0 20.046875 2.7832031 A 1 1 0 0 0 19.046875 1.7832031 z M 30.953125 1.7832031 A 1 1 0 0 0 29.953125 2.7832031 A 1 1 0 0 0 30.953125 3.7832031 A 1 1 0 0 0 31.953125 2.7832031 A 1 1 0 0 0 30.953125 1.7832031 z M 13.5 4.0800781 A 1 1 0 0 0 12.5 5.0800781 A 1 1 0 0 0 13.5 6.0800781 A 1 1 0 0 0 14.5 5.0800781 A 1 1 0 0 0 13.5 4.0800781 z M 36.5 4.0800781 A 1 1 0 0 0 35.5 5.0800781 A 1 1 0 0 0 36.5 6.0800781 A 1 1 0 0 0 37.5 5.0800781 A 1 1 0 0 0 36.5 4.0800781 z M 25 5 C 13.96615 5 5 13.96615 5 25 C 5 36.03385 13.96615 45 25 45 C 36.03385 45 45 36.03385 45 25 C 45 13.96615 36.03385 5 25 5 z M 25 7 C 28.520206 7 31.790832 8.0221294 34.5625 9.7636719 C 34.335233 10.319653 33.994782 11.137733 33.527344 12.164062 C 33.174452 12.938891 32.791205 13.729122 32.451172 14.337891 C 32.281155 14.642275 32.12022 14.902419 31.994141 15.078125 C 31.868061 15.253831 31.741235 15.342636 31.845703 15.277344 L 29.78125 16.542969 A 1.0001 1.0001 0 0 0 29.597656 16.6875 C 29.091954 17.193202 28.898364 17.962595 29.064453 18.626953 A 1.0001 1.0001 0 0 0 29.318359 19.083984 L 29.888672 19.667969 C 29.593457 19.767399 29.294261 19.858006 28.982422 20.03125 C 28.775823 20.146027 28.561159 20.289821 28.363281 20.525391 C 28.165403 20.76096 28 21.125 28 21.5 C 28 22.153624 28.196665 22.71697 28.429688 23.337891 C 28.546198 23.648351 28.672093 23.939974 28.833984 24.210938 C 28.914934 24.346418 29.000462 24.47784 29.144531 24.623047 C 29.288601 24.768254 29.52213 25 30 25 C 31.619014 25 32.708743 24.303618 33.328125 23.564453 C 33.947507 22.825288 34.232653 22.227755 34.818359 21.822266 C 35.490576 21.357068 35.912751 21.30037 36.265625 21.208984 C 36.337265 21.315425 36.333505 21.269414 36.425781 21.447266 C 36.698754 21.973357 36.980291 22.785003 36.994141 23.919922 C 36.984359 23.909209 36.950394 24.056533 36.816406 24.224609 C 36.633526 24.454041 36.325615 24.747794 35.939453 25.017578 C 35.167129 25.557147 34.090741 26 33 26 C 31.002672 26 29.656535 26.589153 28.886719 27.470703 C 28.116902 28.352253 28 29.378737 28 30 C 28 31.925294 29.200504 33.250343 30.324219 33.970703 C 30.886076 34.330883 31.442396 34.570314 31.890625 34.728516 C 32.072467 34.792696 32.15687 34.797356 32.289062 34.835938 C 32.447474 35.13028 32.664611 35.590884 33.259766 37 C 33.561413 37.715425 34.255261 39.211833 34.691406 40.158203 C 31.893147 41.949345 28.574266 43 25 43 C 23.96165 43 22.950827 42.892802 21.960938 42.724609 C 22.167336 41.554894 22.557297 40.200344 22.951172 39.041016 C 23.368228 37.813454 23.698758 37.01347 23.869141 36.535156 C 24.457454 36.1441 26 34.989677 26 32.375 C 26 31.847778 25.848445 31.444816 25.494141 30.960938 C 25.139836 30.477059 24.463333 30 23.625 30 C 23.16216 30 23.133743 29.98722 22.958984 29.880859 C 22.784226 29.774499 22.430544 29.45292 21.794922 28.880859 A 1.0001 1.0001 0 0 0 21.792969 28.880859 C 20.970221 28.141035 19.975238 28 19.25 28 L 17.75 28 L 15.125 28 C 14.395833 28 14.306524 27.78297 14.160156 27.490234 C 14.013788 27.197498 14 26.875 14 26.875 L 14 25 L 14.625 25 C 14.761538 25 14.713626 24.993887 14.710938 24.992188 C 14.737527 25.081277 14.754338 25.206635 14.951172 25.458984 C 15.192545 25.768428 15.716739 26 16.125 26 C 16.787202 26 17.456858 25.616999 17.732422 25.140625 C 18.007986 24.664251 18 24.245278 18 24 C 18 23.497037 18.058169 22.954921 18.263672 22.630859 C 18.469175 22.306797 18.782222 22 20 22 C 20.580357 22 21.296422 21.8905 21.933594 21.40625 C 22.570765 20.922 23 20.043269 23 19 L 23 15.5 C 23 15.331667 23.01208 14.741473 22.642578 14.130859 C 22.273079 13.520246 21.430571 13 20.375 13 C 19.67427 13 19.205371 12.898098 19.074219 12.830078 C 18.943066 12.762058 19 12.904198 19 12.625 C 19 12.6516 19.04484 12.270324 19.15625 11.837891 C 19.267661 11.405457 19.433821 10.863486 19.636719 10.292969 C 19.991973 9.2940499 20.475515 8.2196705 20.935547 7.4765625 C 22.243325 7.1750802 23.599661 7 25 7 z M 8.7363281 7.7363281 A 1 1 0 0 0 7.7363281 8.7363281 A 1 1 0 0 0 8.7363281 9.7363281 A 1 1 0 0 0 9.7363281 8.7363281 A 1 1 0 0 0 8.7363281 7.7363281 z M 41.263672 7.7363281 A 1 1 0 0 0 40.263672 8.7363281 A 1 1 0 0 0 41.263672 9.7363281 A 1 1 0 0 0 42.263672 8.7363281 A 1 1 0 0 0 41.263672 7.7363281 z M 18.267578 8.3105469 C 18.081234 8.7486755 17.90501 9.1907235 17.751953 9.6210938 C 17.530351 10.244202 17.348464 10.836371 17.21875 11.339844 C 17.089036 11.843317 17 12.199903 17 12.625 C 17 13.425802 17.480449 14.255989 18.154297 14.605469 C 18.828145 14.954949 19.54573 15 20.375 15 C 20.917429 15 20.88814 15.09413 20.931641 15.166016 C 20.975141 15.237902 21 15.398333 21 15.5 L 21 19 C 21 19.581731 20.866735 19.703 20.722656 19.8125 C 20.578578 19.922 20.294643 20 20 20 C 18.337778 20 17.150669 20.652656 16.576172 21.558594 C 16.125368 22.269478 16.052411 22.961686 16.03125 23.527344 C 15.9605 23.455374 15.96064 23.385217 15.869141 23.324219 C 15.513463 23.0871 15.085957 23 14.625 23 L 13.75 23 C 13.116778 23 12.423175 23.421378 12.189453 23.914062 C 11.955731 24.406748 12 24.7905 12 25 L 12 26.806641 C 11.168217 26.19502 10.565665 25.753808 10.035156 24.816406 C 9.8808877 24.543681 9.6822207 24.268648 9.4101562 24.025391 A 1.0001 1.0001 0 0 0 9.4082031 24.023438 L 9.109375 23.757812 A 1.0001 1.0001 0 0 0 9.1074219 23.757812 C 8.5605889 23.27224 7.8551448 23.001915 7.1230469 23 C 7.8626493 16.308635 12.251183 10.73539 18.267578 8.3105469 z M 36.236328 10.945312 C 40.356796 14.241782 43 19.303647 43 25 C 43 30.646677 40.406437 35.674324 36.347656 38.972656 C 35.891977 37.979129 35.32951 36.761506 35.101562 36.220703 C 34.420964 34.609286 34.160921 33.97303 33.847656 33.470703 A 1.0001 1.0001 0 0 0 33.126953 33.007812 C 33.231976 33.021192 32.890301 32.960252 32.554688 32.841797 C 32.219073 32.723342 31.797314 32.539054 31.404297 32.287109 C 30.618262 31.78322 30 31.131706 30 30 C 30 29.631263 30.0706 29.158059 30.394531 28.787109 C 30.718465 28.416159 31.372328 28 33 28 C 34.609259 28 36.033262 27.393634 37.085938 26.658203 C 37.612274 26.290488 38.048115 25.890099 38.380859 25.472656 C 38.713604 25.055213 39 24.650926 39 24 C 39 22.480247 38.606913 21.313082 38.199219 20.527344 C 37.791524 19.741605 37.3125 19.273438 37.3125 19.273438 A 1.0001 1.0001 0 0 0 36.453125 19.015625 C 36.453125 19.015625 35.022757 19.249634 33.681641 20.177734 C 32.642347 20.897245 32.196789 21.799712 31.794922 22.279297 C 31.467207 22.670389 31.138299 22.86118 30.4375 22.933594 C 30.39066 22.832965 30.34886 22.762868 30.300781 22.634766 C 30.161225 22.2629 30.101416 21.925915 30.0625 21.740234 C 30.232209 21.659254 30.488117 21.558648 30.816406 21.449219 A 1.0001 1.0001 0 0 0 31.054688 21.332031 C 31.647544 20.936793 31.740687 20.478629 31.845703 20.142578 C 31.950719 19.806528 31.990234 19.515625 31.990234 19.515625 A 1.0001 1.0001 0 0 0 31.714844 18.675781 L 31.121094 18.066406 L 32.898438 16.976562 A 1.0001 1.0001 0 0 0 32.904297 16.972656 C 33.258765 16.751114 33.423931 16.516188 33.619141 16.244141 C 33.81435 15.972093 34.004001 15.66046 34.197266 15.314453 C 34.583795 14.62244 34.981798 13.795485 35.347656 12.992188 C 35.693985 12.23177 35.999054 11.513186 36.236328 10.945312 z M 5.0800781 12.5 A 1 1 0 0 0 4.0800781 13.5 A 1 1 0 0 0 5.0800781 14.5 A 1 1 0 0 0 6.0800781 13.5 A 1 1 0 0 0 5.0800781 12.5 z M 44.919922 12.5 A 1 1 0 0 0 43.919922 13.5 A 1 1 0 0 0 44.919922 14.5 A 1 1 0 0 0 45.919922 13.5 A 1 1 0 0 0 44.919922 12.5 z M 2.7832031 18.046875 A 1 1 0 0 0 1.7832031 19.046875 A 1 1 0 0 0 2.7832031 20.046875 A 1 1 0 0 0 3.7832031 19.046875 A 1 1 0 0 0 2.7832031 18.046875 z M 47.216797 18.046875 A 1 1 0 0 0 46.216797 19.046875 A 1 1 0 0 0 47.216797 20.046875 A 1 1 0 0 0 48.216797 19.046875 A 1 1 0 0 0 47.216797 18.046875 z M 2 24 A 1 1 0 0 0 1 25 A 1 1 0 0 0 2 26 A 1 1 0 0 0 3 25 A 1 1 0 0 0 2 24 z M 48 24 A 1 1 0 0 0 47 25 A 1 1 0 0 0 48 26 A 1 1 0 0 0 49 25 A 1 1 0 0 0 48 24 z M 7 25 L 7.1152344 25 C 7.3603364 25 7.5960767 25.08926 7.7792969 25.251953 L 8.078125 25.517578 C 8.145731 25.578458 8.2257221 25.678446 8.2949219 25.800781 C 9.1278885 27.272625 10.208461 27.957367 11.171875 28.679688 C 11.704319 29.07902 12.41028 29.431755 13.027344 29.931641 C 13.644407 30.431527 14.001953 30.939815 14.001953 31.375 C 14.001953 33.122865 14.549001 34.796684 15.056641 36.242188 C 15.56428 37.687691 16.001953 38.97037 16.001953 39.5 L 16.001953 40.583984 C 10.619306 37.477871 7 31.671306 7 25 z M 2.7832031 29.953125 A 1 1 0 0 0 1.7832031 30.953125 A 1 1 0 0 0 2.7832031 31.953125 A 1 1 0 0 0 3.7832031 30.953125 A 1 1 0 0 0 2.7832031 29.953125 z M 47.216797 29.953125 A 1 1 0 0 0 46.216797 30.953125 A 1 1 0 0 0 47.216797 31.953125 A 1 1 0 0 0 48.216797 30.953125 A 1 1 0 0 0 47.216797 29.953125 z M 15.671875 30 L 17.75 30 L 19.25 30 C 19.783971 30 20.088601 30.04031 20.455078 30.369141 C 21.069456 30.92208 21.425227 31.288001 21.917969 31.587891 C 22.41071 31.88778 23.00784 32 23.625 32 C 23.786667 32 23.797664 32.02896 23.880859 32.142578 C 23.964055 32.2562 24 32.542222 24 32.375 C 24 34.492063 22.552734 35.105469 22.552734 35.105469 A 1.0001 1.0001 0 0 0 22.050781 35.683594 C 22.017001 35.784939 21.532633 37.001198 21.058594 38.396484 C 20.656923 39.578761 20.24356 40.96261 20.003906 42.285156 C 19.31678 42.087339 18.652577 41.837 18.001953 41.5625 L 18.001953 39.5 C 18.001953 38.22963 17.437673 36.980121 16.945312 35.578125 C 16.452952 34.176129 16.001953 32.687135 16.001953 31.375 C 16.001953 30.862179 15.873707 30.405741 15.671875 30 z M 5.0800781 35.5 A 1 1 0 0 0 4.0800781 36.5 A 1 1 0 0 0 5.0800781 37.5 A 1 1 0 0 0 6.0800781 36.5 A 1 1 0 0 0 5.0800781 35.5 z M 44.919922 35.5 A 1 1 0 0 0 43.919922 36.5 A 1 1 0 0 0 44.919922 37.5 A 1 1 0 0 0 45.919922 36.5 A 1 1 0 0 0 44.919922 35.5 z M 8.7363281 40.263672 A 1 1 0 0 0 7.7363281 41.263672 A 1 1 0 0 0 8.7363281 42.263672 A 1 1 0 0 0 9.7363281 41.263672 A 1 1 0 0 0 8.7363281 40.263672 z M 41.263672 40.263672 A 1 1 0 0 0 40.263672 41.263672 A 1 1 0 0 0 41.263672 42.263672 A 1 1 0 0 0 42.263672 41.263672 A 1 1 0 0 0 41.263672 40.263672 z M 13.5 43.919922 A 1 1 0 0 0 12.5 44.919922 A 1 1 0 0 0 13.5 45.919922 A 1 1 0 0 0 14.5 44.919922 A 1 1 0 0 0 13.5 43.919922 z M 36.5 43.919922 A 1 1 0 0 0 35.5 44.919922 A 1 1 0 0 0 36.5 45.919922 A 1 1 0 0 0 37.5 44.919922 A 1 1 0 0 0 36.5 43.919922 z M 19.046875 46.216797 A 1 1 0 0 0 18.046875 47.216797 A 1 1 0 0 0 19.046875 48.216797 A 1 1 0 0 0 20.046875 47.216797 A 1 1 0 0 0 19.046875 46.216797 z M 30.953125 46.216797 A 1 1 0 0 0 29.953125 47.216797 A 1 1 0 0 0 30.953125 48.216797 A 1 1 0 0 0 31.953125 47.216797 A 1 1 0 0 0 30.953125 46.216797 z M 25 47 A 1 1 0 0 0 24 48 A 1 1 0 0 0 25 49 A 1 1 0 0 0 26 48 A 1 1 0 0 0 25 47 z"/></symbol>
    <symbol id="icon-objectives5" viewBox="0 0 50 50"><title>handshake</title><path d="M 34.21875 4.125 C 33.199219 4.183594 32.195313 4.433594 31.25 4.90625 L 25.75 7.59375 L 10.125 7.59375 L 1.25 5.4375 C 1.117188 5.398438 0.980469 5.390625 0.84375 5.40625 C 0.359375 5.464844 -0.0078125 5.863281 -0.03125 6.351563 C -0.0546875 6.835938 0.273438 7.269531 0.75 7.375 L 9.75 9.5625 L 9.875 9.59375 L 21.65625 9.59375 L 13.15625 13.75 C 13.121094 13.765625 13.097656 13.796875 13.0625 13.8125 C 11.742188 14.394531 11.394531 16.199219 12.375 17.25 L 12.34375 17.28125 C 12.359375 17.296875 12.390625 17.296875 12.40625 17.3125 C 15.382813 20.574219 20.097656 21.65625 24.25 20.03125 L 24.28125 20.03125 L 30.15625 17.75 L 42.28125 29.90625 C 43.199219 30.824219 43.199219 32.269531 42.28125 33.1875 C 41.363281 34.105469 39.917969 34.105469 39 33.1875 C 38.601563 32.867188 38.027344 32.898438 37.664063 33.257813 C 37.304688 33.621094 37.273438 34.195313 37.59375 34.59375 C 38.511719 35.511719 38.511719 36.988281 37.59375 37.90625 C 36.675781 38.824219 35.230469 38.824219 34.3125 37.90625 L 33.59375 37.1875 C 33.195313 36.867188 32.621094 36.898438 32.257813 37.257813 C 31.898438 37.621094 31.867188 38.195313 32.1875 38.59375 C 33.105469 39.511719 33.105469 40.988281 32.1875 41.90625 C 31.269531 42.824219 29.824219 42.824219 28.90625 41.90625 L 28.21875 41.1875 C 27.832031 40.789063 27.195313 40.785156 26.796875 41.171875 C 26.398438 41.558594 26.394531 42.195313 26.78125 42.59375 C 27.699219 43.511719 27.699219 44.988281 26.78125 45.90625 C 25.863281 46.824219 24.417969 46.824219 23.5 45.90625 L 22.25 44.65625 L 23 43.90625 C 24.464844 42.441406 24.464844 40.058594 23 38.59375 C 22.269531 37.863281 21.304688 37.5 20.34375 37.5 C 20.332031 37.5 20.324219 37.5 20.3125 37.5 C 20.328125 36.515625 19.964844 35.527344 19.21875 34.78125 C 18.488281 34.050781 17.523438 33.6875 16.5625 33.6875 C 16.511719 33.6875 16.457031 33.683594 16.40625 33.6875 C 16.4375 32.683594 16.078125 31.671875 15.3125 30.90625 C 14.582031 30.175781 13.617188 29.78125 12.65625 29.78125 C 12.605469 29.78125 12.550781 29.777344 12.5 29.78125 C 12.53125 28.777344 12.171875 27.765625 11.40625 27 C 10.675781 26.269531 9.710938 25.90625 8.75 25.90625 C 7.789063 25.90625 6.824219 26.269531 6.09375 27 L 5.1875 27.90625 L 1.15625 27.21875 C 1.09375 27.203125 1.03125 27.191406 0.96875 27.1875 C 0.417969 27.152344 -0.0585938 27.574219 -0.09375 28.125 C -0.128906 28.675781 0.292969 29.152344 0.84375 29.1875 L 4.125 29.78125 C 3.828125 31.011719 4.136719 32.355469 5.09375 33.3125 C 5.867188 34.085938 6.894531 34.449219 7.90625 34.40625 C 7.863281 35.417969 8.226563 36.445313 9 37.21875 C 9.773438 37.992188 10.800781 38.355469 11.8125 38.3125 C 11.78125 39.316406 12.140625 40.328125 12.90625 41.09375 C 13.652344 41.839844 14.640625 42.203125 15.625 42.1875 C 15.601563 43.175781 15.953125 44.171875 16.6875 44.90625 L 16.71875 44.9375 C 17.761719 45.957031 19.261719 46.226563 20.5625 45.78125 L 22.09375 47.3125 C 23.773438 48.992188 26.539063 48.992188 28.21875 47.3125 C 29.035156 46.496094 29.414063 45.417969 29.4375 44.34375 C 30.882813 44.726563 32.46875 44.4375 33.59375 43.3125 C 34.410156 42.496094 34.820313 41.417969 34.84375 40.34375 C 36.285156 40.722656 37.875 40.4375 39 39.3125 C 39.960938 38.351563 40.324219 37.042969 40.1875 35.78125 C 41.449219 35.921875 42.757813 35.554688 43.71875 34.59375 C 44.792969 33.519531 45.175781 32.011719 44.875 30.625 L 45.46875 30.03125 L 49.15625 29.5 C 49.707031 29.414063 50.085938 28.894531 50 28.34375 C 49.914063 27.792969 49.394531 27.414063 48.84375 27.5 L 44.84375 28.125 L 44.53125 28.15625 L 43.9375 28.75 C 43.867188 28.667969 43.796875 28.578125 43.71875 28.5 L 31.40625 16.1875 C 31.359375 16.140625 31.304688 16.097656 31.25 16.0625 C 31.238281 16.050781 31.230469 16.042969 31.21875 16.03125 C 30.957031 15.644531 30.464844 15.492188 30.03125 15.65625 L 23.53125 18.15625 C 20.113281 19.507813 16.265625 18.628906 13.84375 15.9375 L 13.8125 15.90625 C 13.683594 15.777344 13.675781 15.6875 13.84375 15.625 L 13.90625 15.625 L 13.9375 15.59375 L 26.28125 9.5625 C 26.492188 9.53125 26.691406 9.433594 26.84375 9.28125 L 32.125 6.6875 L 32.15625 6.6875 C 34 5.765625 36.152344 5.953125 37.84375 7.09375 L 38.21875 7.53125 L 38.3125 7.65625 L 38.4375 7.71875 C 40.253906 8.96875 42.441406 9.300781 44.5 8.75 L 44.5 8.78125 L 44.5625 8.75 L 49.21875 7.78125 C 49.761719 7.660156 50.105469 7.121094 49.984375 6.578125 C 49.863281 6.035156 49.324219 5.691406 48.78125 5.8125 L 44.09375 6.8125 L 44.0625 6.84375 L 44.03125 6.84375 C 42.539063 7.257813 41 6.984375 39.65625 6.09375 L 39.28125 5.65625 L 39.1875 5.5625 L 39.0625 5.46875 C 37.914063 4.664063 36.601563 4.226563 35.25 4.125 C 34.910156 4.101563 34.558594 4.105469 34.21875 4.125 Z M 8.75 27.84375 C 9.1875 27.84375 9.632813 28.039063 10 28.40625 C 10.734375 29.140625 10.734375 30.171875 10 30.90625 L 9.21875 31.65625 L 9.125 31.75 L 9 31.90625 C 8.265625 32.640625 7.234375 32.640625 6.5 31.90625 C 5.898438 31.304688 5.808594 30.515625 6.1875 29.84375 C 6.363281 29.71875 6.492188 29.546875 6.5625 29.34375 L 7.375 28.5625 L 7.5 28.40625 C 7.867188 28.039063 8.3125 27.84375 8.75 27.84375 Z M 12.65625 31.75 C 13.09375 31.75 13.539063 31.945313 13.90625 32.3125 C 14.640625 33.046875 14.640625 34.046875 13.90625 34.78125 L 12.90625 35.78125 C 12.171875 36.515625 11.140625 36.515625 10.40625 35.78125 C 9.671875 35.046875 9.671875 34.046875 10.40625 33.3125 L 11.40625 32.3125 C 11.773438 31.945313 12.21875 31.75 12.65625 31.75 Z M 16.5625 35.65625 C 17 35.65625 17.414063 35.851563 17.78125 36.21875 C 18.386719 36.824219 18.488281 37.613281 18.09375 38.28125 C 17.957031 38.382813 17.8125 38.46875 17.6875 38.59375 L 16.6875 39.59375 L 16.6875 39.625 L 16.65625 39.625 C 16.546875 39.746094 16.464844 39.871094 16.375 40 C 15.707031 40.394531 14.917969 40.292969 14.3125 39.6875 C 13.578125 38.953125 13.578125 37.953125 14.3125 37.21875 L 15.0625 36.4375 L 15.25 36.28125 L 15.3125 36.21875 C 15.679688 35.851563 16.125 35.65625 16.5625 35.65625 Z M 20.34375 39.46875 C 20.78125 39.46875 21.226563 39.632813 21.59375 40 C 22.328125 40.734375 22.328125 41.765625 21.59375 42.5 L 20.59375 43.5 C 20.507813 43.585938 20.4375 43.683594 20.34375 43.75 C 20.335938 43.753906 20.320313 43.746094 20.3125 43.75 C 19.613281 44.234375 18.738281 44.144531 18.09375 43.5 C 17.621094 43.027344 17.511719 42.082031 17.84375 41.375 C 17.96875 41.277344 18.105469 41.207031 18.21875 41.09375 L 19.21875 40.09375 C 19.351563 39.960938 19.453125 39.804688 19.5625 39.65625 C 19.8125 39.53125 20.082031 39.46875 20.34375 39.46875 Z"/></symbol>
    <symbol id="scroll-down" viewBox="0 0 128 128">
        <!-- <style type="text/css">
            .st0{fill:none;stroke:#A0A0A0;stroke-width:8;stroke-linecap:square;stroke-linejoin:bevel;stroke-miterlimit:10;}
        </style> -->
        <g>
            <line class="st0" x1="39.4" y1="69.6" x2="64" y2="94.2"/>
        </g>
        <g>
            <line class="st0" x1="88.6" y1="69.6" x2="64" y2="94.2"/>
        </g>
        <circle class="st0" cx="64" cy="64" r="56"/>
        <line class="st0" x1="64" y1="89" x2="64" y2="31"/>
    </symbol>
</svg>
