<svg xmlns="http://www.w3.org/2000/svg" xmlns:xlink="http://www.w3.org/1999/xlink" class="invisible">
    <symbol id="gear" viewBox="0 0 24 24">
        <path style="stroke:transparent;fill:var(--control-color);" d="M24 14.187v-4.374c-2.148-.766-2.726-.802-3.027-1.529-.303-.729.083-1.169 1.059-3.223l-3.093-3.093c-2.026.963-2.488 1.364-3.224 1.059-.727-.302-.768-.889-1.527-3.027h-4.375c-.764 2.144-.8 2.725-1.529 3.027-.752.313-1.203-.1-3.223-1.059l-3.093 3.093c.977 2.055 1.362 2.493 1.059 3.224-.302.727-.881.764-3.027 1.528v4.375c2.139.76 2.725.8 3.027 1.528.304.734-.081 1.167-1.059 3.223l3.093 3.093c1.999-.95 2.47-1.373 3.223-1.059.728.302.764.88 1.529 3.027h4.374c.758-2.131.799-2.723 1.537-3.031.745-.308 1.186.099 3.215 1.062l3.093-3.093c-.975-2.05-1.362-2.492-1.059-3.223.3-.726.88-.763 3.027-1.528zm-4.875.764c-.577 1.394-.068 2.458.488 3.578l-1.084 1.084c-1.093-.543-2.161-1.076-3.573-.49-1.396.581-1.79 1.693-2.188 2.877h-1.534c-.398-1.185-.791-2.297-2.183-2.875-1.419-.588-2.507-.045-3.579.488l-1.083-1.084c.557-1.118 1.066-2.18.487-3.58-.579-1.391-1.691-1.784-2.876-2.182v-1.533c1.185-.398 2.297-.791 2.875-2.184.578-1.394.068-2.459-.488-3.579l1.084-1.084c1.082.538 2.162 1.077 3.58.488 1.392-.577 1.785-1.69 2.183-2.875h1.534c.398 1.185.792 2.297 2.184 2.875 1.419.588 2.506.045 3.579-.488l1.084 1.084c-.556 1.121-1.065 2.187-.488 3.58.577 1.391 1.689 1.784 2.875 2.183v1.534c-1.188.398-2.302.791-2.877 2.183zm-7.125-5.951c1.654 0 3 1.346 3 3s-1.346 3-3 3-3-1.346-3-3 1.346-3 3-3zm0-2c-2.762 0-5 2.238-5 5s2.238 5 5 5 5-2.238 5-5-2.238-5-5-5z"></path>
    </symbol>
    <symbol id="rocket" viewBox="0 0 24 24">
        <path style="stroke:transparent;fill:var(--control-color);" d="M23.948.042c-.413-.028-.817-.042-1.214-.042-8.6 0-13.497 6.557-15.278 11.833l4.727 4.727c5.428-1.944 11.817-6.66 11.817-15.168 0-.44-.017-.89-.052-1.35zm-11.277 14.178l-2.883-2.883c1.221-2.859 4.691-8.945 12.199-9.32-.251 5.775-4.041 9.932-9.316 12.203zm5.471 1.538c-.547.373-1.09.71-1.628 1.011-.187.891-.662 1.842-1.351 2.652-.002-.576-.162-1.156-.443-1.738-.495.225-.966.418-1.414.588.66 1.709-.012 2.971-.915 4.154 1.296-.098 2.656-.732 3.728-1.805 1.155-1.155 1.967-2.823 2.023-4.862zm-11.82-6.469c-.579-.28-1.158-.438-1.732-.441.803-.681 1.744-1.153 2.626-1.345.314-.552.667-1.097 1.039-1.633-2.039.055-3.708.867-4.864 2.023-1.071 1.071-1.706 2.433-1.804 3.728 1.184-.904 2.446-1.576 4.155-.914.173-.471.366-.944.58-1.418zm7.738.663c-.391-.391-.391-1.023 0-1.414s1.023-.391 1.414 0c.391.392.391 1.024 0 1.415s-1.024.39-1.414-.001zm4.949-4.951c-.78-.78-2.047-.78-2.828 0-.781.781-.781 2.049 0 2.829.781.781 2.048.781 2.829 0 .78-.78.78-2.047-.001-2.829zm-1.908 1.911c-.273-.273-.273-.718 0-.99.271-.273.717-.273.99 0 .272.272.271.717 0 .99-.274.272-.718.272-.99 0zm-15.132 12.666l-.906-.906 5.208-5.188.906.906-5.208 5.188zm4.979 1.857l-.906-.906 3.636-3.664.906.906-3.636 3.664zm-6.042 2.565l-.906-.906 6.448-6.438.906.906-6.448 6.438z"></path>
    </symbol>
    <symbol id="profile" viewBox="0 0 24 24">
        <path style="stroke:transparent;fill:var(--control-color);" d="M20.822 18.096c-3.439-.794-6.641-1.49-5.09-4.418 4.719-8.912 1.251-13.678-3.732-13.678-5.082 0-8.465 4.949-3.732 13.678 1.598 2.945-1.725 3.641-5.09 4.418-2.979.688-3.178 2.143-3.178 4.663l.005 1.241h1.995c0-3.134-.125-3.55 1.838-4.003 2.851-.657 5.543-1.278 6.525-3.456.359-.795.592-2.103-.338-3.815-2.058-3.799-2.578-7.089-1.423-9.026 1.354-2.275 5.426-2.264 6.767-.034 1.15 1.911.639 5.219-1.403 9.076-.91 1.719-.671 3.023-.31 3.814.99 2.167 3.707 2.794 6.584 3.458 1.879.436 1.76.882 1.76 3.986h1.995l.005-1.241c0-2.52-.199-3.975-3.178-4.663z"></path>
    </symbol>
    <symbol id="burn" viewBox="0 0 24 24">
        <path style="stroke:transparent;fill:var(--control-color);" d="M7.467 0c1.102.018 5.555 2.549 6.386 8.558.905-.889 1.409-3.664 1.147-4.843 3.952 2.969 6 6.781 6 11.034 0 5.094-3.43 9.251-8.963 9.251-5.728 0-9.037-3.753-9.037-8.276 0-6.26 5.052-7.62 4.467-15.724zm3.262 19.743c-.749.848-.368 1.945.763 2.045 1.035.093 1.759-.812 2.032-1.792.273-.978.09-2.02-.369-2.893-.998 1.515-1.52 1.64-2.426 2.64zm4.42 1.608c2.49-1.146 3.852-3.683 3.852-6.58 0-2.358-.94-4.977-2.5-7.04-.743 2.867-2.924 3.978-4.501 4.269.05-3.219-.318-6.153-2.602-8.438-.296 4.732-4.321 7.63-4.398 12.114-.029 1.511.514 3.203 1.73 4.415.491.489 1.054.871 1.664 1.16-.121-.608-.062-1.254.195-1.848.911-2.106 3.333-2.321 4.202-5.754.952.749 3.275 3.503 2.778 6.358-.082.469-.224.923-.42 1.344z"></path>
    </symbol>
    <!-- Spinner -->
    <symbol fill="none" viewBox="0 0 24 24">
        <path stroke-linecap="round" stroke-linejoin="round" stroke-width="2" d="M4 4v5h.582m15.356 2A8.001 8.001 0 004.582 9m0 0H9m11 11v-5h-.581m0 0a8.003 8.003 0 01-15.357-2m15.357 2H15"></path>
    </symbol>
    <symbol id="chart-file" viewBox="0 0 24 24">
    <!-- stroke-linecap="round" stroke-linejoin="round" -->
        <path style="stroke:var(--control-color);fill:transparent;" stroke-width="2" d="M9 17v-2m3 2v-4m3 4v-6m2 10H7a2 2 0 01-2-2V5a2 2 0 012-2h5.586a1 1 0 01.707.293l5.414 5.414a1 1 0 01.293.707V19a2 2 0 01-2 2z"></path>
    </symbol>
</svg>