<svg width="77" height="77" xmlns="http://www.w3.org/2000/svg" xmlns:xlink="http://www.w3.org/1999/xlink" xml:space="preserve" overflow="hidden"><defs><clipPath id="clip0"><rect x="0" y="0" width="77" height="77"/></clipPath></defs><g clip-path="url(#clip0)"><path d="M35.2917 64.1667 33.6875 64.1667 33.6875 60.9583 11.2292 60.9583 11.2292 64.1667 9.625 64.1667C7.86042 64.1667 6.41667 65.6104 6.41667 67.375 6.41667 69.1396 7.86042 70.5833 9.625 70.5833L35.2917 70.5833C37.0563 70.5833 38.5 69.1396 38.5 67.375 38.5 65.6104 37.0563 64.1667 35.2917 64.1667Z" fill="#548235" fill-rule="nonzero" fill-opacity="1"/><path d="M35.2115 48.2052C36.174 47.2427 36.174 45.7188 35.2115 44.8365L22.5385 32.1635C21.576 31.201 20.0521 31.201 19.1698 32.1635L16.0417 35.2917 32.0833 51.3333 35.2115 48.2052Z" fill="#548235" fill-rule="nonzero" fill-opacity="1"/><path d="M54.4615 25.5865C55.424 26.549 56.9479 26.549 57.8302 25.5865L60.9583 22.4583 44.9167 6.41667 41.7885 9.54479C40.826 10.5073 40.826 12.0312 41.7885 12.9135L54.4615 25.5865Z" fill="#548235" fill-rule="nonzero" fill-opacity="1"/><path d="M69.7812 53.7396 48.125 32.0833 52.9375 27.2708 40.1042 14.4375 24.0625 30.4792 36.8958 43.3125 43.3125 36.8958 64.9688 58.5521C66.3323 59.9156 68.4177 59.9156 69.7812 58.5521 71.1448 57.1885 71.1448 55.1031 69.7812 53.7396Z" fill="#548235" fill-rule="nonzero" fill-opacity="1"/></g></svg>